<!DOCTYPE svg PUBLIC "-//W3C//DTD SVG 1.1//EN" "http://www.w3.org/Graphics/SVG/1.1/DTD/svg11.dtd">
<!-- Uploaded to: SVG Repo, www.svgrepo.com, Transformed by: SVG Repo Mixer Tools -->
<svg fill="#ffffff" height="800px" width="800px" version="1.1" id="Capa_1" xmlns="http://www.w3.org/2000/svg" xmlns:xlink="http://www.w3.org/1999/xlink" viewBox="0 0 378.489 378.489" xml:space="preserve" stroke="#ffffff">
<g id="SVGRepo_bgCarrier" stroke-width="0"/>
<g id="SVGRepo_tracerCarrier" stroke-linecap="round" stroke-linejoin="round"/>
<g id="SVGRepo_iconCarrier"> <g> <g id="Layer_5_18_"> <g> <path d="M291.432,0H87.058C73.121,0,61.784,11.338,61.784,25.274v327.94c0,25.785,18.414,25.274,25.274,25.274h204.373 c6.861,0,25.274,0,25.274-25.274V25.274C316.706,11.338,305.368,0,291.432,0z M221.175,252.266h-15.119 c0,0-3.378,0.05-3.378,2.674c0,3.956,0,15.824,0,15.824c0,7.418-6.014,13.433-13.433,13.433s-13.433-6.015-13.433-13.433 c0,0,0-11.711,0-15.614c0-3.149-2.92-2.884-2.92-2.884h-15.577c-7.419,0-13.433-6.014-13.433-13.433s6.014-13.433,13.433-13.433 h15.157c0,0,3.34,0.154,3.34-3.099c0-3.85,0-15.397,0-15.397c0-7.419,6.014-13.434,13.433-13.434s13.433,6.015,13.433,13.434 c0,0,0,12.335,0,16.447c0,2.204,2.853,2.05,2.853,2.05h15.644c7.419,0,13.433,6.014,13.433,13.433 S228.594,252.266,221.175,252.266z M174.951,132.178h28.589c8.971,0,19.299,3.885,27.118,9.747 c0.69,0.517,1.852,1.596-0.836,1.596h-80.437c-3.313,0-2.386-0.964-1.775-1.428C155.455,136.137,165.894,132.178,174.951,132.178 z M158.116,87.05c0-17.165,13.964-31.129,31.129-31.129s31.129,13.964,31.129,31.129c0,17.164-13.964,31.128-31.129,31.128 S158.116,104.214,158.116,87.05z M302.706,139c0,5.25-4.634,4.521-4.634,4.521h-44.563c-2.438,0-3.096-1.246-3.536-1.856 c-6.602-9.154-17.218-16.396-28.524-20.299c-0.711-0.245-2.168-0.699-1.133-1.619c2.427-2.172,3.281-3.245,5.191-5.891 c0.247-0.342,1.189-1.477,2.606-1.477h37.228c9.421,0,17.085-7.664,17.085-17.085V50.539c0-9.421-7.664-17.085-17.085-17.085 H113.149c-9.421,0-17.085,7.664-17.085,17.085v44.755c0,9.421,7.664,17.085,17.085,17.085h36.048 c2.667,0,3.795,1.508,4.357,2.237c1.689,2.185,2.601,3.319,4.657,5.159c1.069,0.892-0.042,1.211-0.545,1.379 c-11.484,3.831-22.321,11.118-29.053,20.375c-0.476,0.654-1.604,1.991-3.479,1.991H80.946c0,0-5.163,0.604-5.163-5.646 c0-28.15,0-112.601,0-112.601c0-6.217,5.058-11.274,11.274-11.274H291.43c6.217,0,11.274,5.058,11.274,11.274 C302.706,25.274,302.706,110.568,302.706,139z"/> </g> </g> </g> </g>
</svg>